<svg xmlns="http://www.w3.org/2000/svg" version="1.1" xmlns:xlink="http://www.w3.org/1999/xlink" width="1000" height="1000"><g clip-path="url(#SvgjsClipPath1291)"><rect width="1000" height="1000" fill="#ffffff"></rect><g transform="matrix(3.3333333333333335,0,0,3.3333333333333335,0,0)"><svg xmlns="http://www.w3.org/2000/svg" version="1.1" xmlns:xlink="http://www.w3.org/1999/xlink" width="300" height="300"><svg id="Logo_White_" data-name="Logo (White)" xmlns="http://www.w3.org/2000/svg" viewBox="0 0 300 300">
  <defs>
    <style>
      .cls-1 {
        fill: #3f563e;
      }
    </style>
  <clipPath id="SvgjsClipPath1291"><rect width="1000" height="1000" x="0" y="0" rx="0" ry="0"></rect></clipPath></defs>
  <path id="Y" class="cls-1" d="M172.55,97.74l-23.58-.63c-1.97-3.23-4.84-6.11-8.63-8.63-3.79-2.53-7.93-3.79-12.42-3.79h-2.95v-2.11h57.69v2.11s-2.74,0-2.74,0c-3.09,0-5.44,1.44-7.05,4.32-1.62,2.88-1.72,5.79-.32,8.74ZM164.38,82.79l42.06,77.27-16.06,5.89-50.1-83.16h24.1ZM189.6,214.59v15.37h-16.63s0-2.11,0-2.11h2.74c3.65,0,6.77-1.3,9.37-3.89,2.59-2.6,3.96-5.72,4.11-9.37h.42ZM208.76,162.16v67.79h-19.58v-67.79h19.58ZM216.31,150.91l-9.23,15.67-8.63-2.32,10.32-18.07,1.46,6.33,6.08-1.62h0ZM208.13,214.59h.63c0,3.65,1.33,6.77,4,9.37,2.66,2.6,5.82,3.89,9.47,3.89h2.53v2.11s-16.63,0-16.63,0v-15.37Z"></path>
  <path id="Leaf" class="cls-1" d="M265.25,67.1c-.02-.09-78.25,15.24-55.87,86.09.03.08.1.13.18.11,3.41-.69,68.61-14.86,55.68-86.2ZM212.63,147.82s-1.79-25.56,40.46-64.44c0,0-21.04,28.64-40.46,64.44Z"></path>
  <path id="S" class="cls-1" d="M76.13,79.63c2.39,0,5.12.14,8.21.42,3.09.28,6.21.67,9.37,1.16,3.16.49,5.96.98,8.42,1.47,2.45.49,4.24,1.02,5.37,1.58l-.84,25.05h-1.89c0-6.88-2.46-12.35-7.37-16.42-4.92-4.07-11.09-6.11-18.53-6.11-7.86,0-14.21,2.28-19.05,6.84-4.84,4.56-7.26,9.93-7.26,16.11-.14,3.09.66,6.35,2.42,9.79,1.75,3.44,4.45,6.63,8.11,9.58l41.05,34.32c4.91,3.79,8.39,8.18,10.42,13.16,2.03,4.98,2.98,10.14,2.84,15.47-.29,12.35-4.42,22.25-12.42,29.69-8,7.44-18.81,11.16-32.42,11.16-4.35,0-9.02-.42-14-1.26-4.98-.84-9.65-2.14-14-3.9-4.35-1.75-7.86-4.03-10.53-6.84-.7-2.53-1.02-5.65-.95-9.37.07-3.72.49-7.54,1.26-11.47.77-3.93,1.79-7.44,3.05-10.53h1.9c-.7,7.16.32,13.55,3.05,19.16,2.74,5.62,6.74,9.93,12,12.95,5.26,3.02,11.33,4.39,18.21,4.11,8.28-.28,15.12-2.84,20.53-7.68,5.4-4.84,8.11-11.19,8.11-19.05,0-4.07-.92-7.79-2.74-11.16-1.83-3.37-4.63-6.39-8.42-9.05l-39.16-33.27c-5.34-3.93-9.13-8.56-11.37-13.9-2.25-5.33-3.23-10.67-2.95-16,.28-6.32,1.96-12.24,5.05-17.79,3.09-5.54,7.54-9.96,13.37-13.26,5.82-3.3,12.88-4.95,21.16-4.95ZM107.5,81.73v4.42h-18.95v-4.42h18.95Z"></path>
</svg></svg></g></g></svg>