<?xml version="1.0" encoding="UTF-8"?>
<svg id="Logo_White_" data-name="Logo (White)" xmlns="http://www.w3.org/2000/svg" viewBox="0 0 418.5 300">
  <defs>
    <style>
      .cls-1 {
        fill: #3f563e;
      }
    </style>
  </defs>
  <path id="Y" class="cls-1" d="M249.25,57.29l-41.83-1.12c-3.49-5.72-8.59-10.83-15.31-15.31-6.72-4.48-14.07-6.72-22.04-6.72h-5.23v-3.73h102.33v3.73s-4.86,0-4.86,0c-5.48,0-9.65,2.56-12.51,7.66-2.87,5.11-3.05,10.27-.56,15.5ZM234.76,30.78l74.61,137.06-28.5,10.46L192.02,30.78h42.74ZM279.5,264.56v27.26h-29.5s0-3.73,0-3.73h4.85c6.47,0,12.01-2.3,16.62-6.91,4.6-4.6,7.03-10.14,7.28-16.62h.75ZM313.48,171.57v120.25h-34.73v-120.25h34.73ZM326.86,151.61l-16.37,27.8-15.31-4.11,18.3-32.05,2.59,11.22,10.79-2.87h0ZM312.36,264.56h1.12c0,6.48,2.36,12.02,7.09,16.62,4.73,4.61,10.33,6.91,16.81,6.91h4.48v3.73s-29.5,0-29.5,0v-27.26Z"/>
  <path id="Leaf" class="cls-1" d="M413.67,2.95c-.03-.16-138.79,27.04-99.1,152.7.04.14.18.23.32.2,6.05-1.23,121.71-26.35,98.77-152.9ZM320.34,146.13s-3.18-45.34,71.77-114.31c0,0-37.32,50.8-71.77,114.31Z"/>
  <path id="S" class="cls-1" d="M78.21,25.18c4.23,0,9.08.25,14.56.75,5.48.5,11.02,1.18,16.62,2.05,5.6.88,10.58,1.74,14.94,2.61,4.35.88,7.53,1.81,9.52,2.8l-1.49,44.44h-3.36c0-12.2-4.36-21.91-13.07-29.13-8.72-7.22-19.67-10.83-32.87-10.83-13.95,0-25.21,4.05-33.8,12.14-8.59,8.09-12.88,17.62-12.88,28.57-.25,5.48,1.18,11.27,4.29,17.37,3.11,6.1,7.9,11.76,14.38,16.99l72.82,60.87c8.71,6.72,14.88,14.51,18.49,23.34,3.6,8.84,5.29,17.99,5.04,27.45-.51,21.91-7.84,39.46-22.04,52.66-14.19,13.2-33.36,19.79-57.51,19.79-7.72,0-16-.75-24.84-2.24-8.84-1.49-17.12-3.79-24.84-6.91-7.72-3.11-13.95-7.15-18.67-12.14-1.25-4.48-1.81-10.02-1.68-16.62.12-6.59.87-13.38,2.24-20.35,1.37-6.97,3.17-13.19,5.41-18.67h3.36c-1.25,12.7.56,24.03,5.41,33.98,4.86,9.96,11.95,17.62,21.29,22.97,9.34,5.36,20.1,7.78,32.3,7.28,14.69-.5,26.83-5.04,36.41-13.63,9.58-8.59,14.38-19.85,14.38-33.8,0-7.22-1.62-13.82-4.85-19.79-3.24-5.98-8.22-11.33-14.94-16.06l-69.47-59.01c-9.47-6.97-16.19-15.18-20.17-24.65-3.99-9.46-5.73-18.92-5.23-28.38.5-11.2,3.48-21.72,8.96-31.56,5.47-9.83,13.38-17.67,23.71-23.53,10.33-5.85,22.84-8.78,37.53-8.78ZM133.85,28.91v7.84h-33.61v-7.84h33.61Z"/>
</svg>